<?xml version="1.0" encoding="UTF-8" standalone="no"?>
<!DOCTYPE svg PUBLIC "-//W3C//DTD SVG 1.1//EN"
 "http://www.w3.org/Graphics/SVG/1.1/DTD/svg11.dtd">
<!-- Generated by graphviz version 2.43.0 (0)
 -->
<!-- Title: include/bibliotecario.hpp Pages: 1 -->
<svg width="165pt" height="196pt"
 viewBox="0.00 0.00 164.50 196.00" xmlns="http://www.w3.org/2000/svg" xmlns:xlink="http://www.w3.org/1999/xlink">
<g id="graph0" class="graph" transform="scale(1 1) rotate(0) translate(4 192)">
<title>include/bibliotecario.hpp</title>
<polygon fill="white" stroke="transparent" points="-4,4 -4,-192 160.5,-192 160.5,4 -4,4"/>
<!-- Node1 -->
<g id="node1" class="node">
<title>Node1</title>
<g id="a_node1"><a xlink:title="Armazena as caracteristicas do Bibliotecário.">
<polygon fill="#bfbfbf" stroke="black" points="0,-168.5 0,-187.5 137,-187.5 137,-168.5 0,-168.5"/>
<text text-anchor="middle" x="68.5" y="-175.5" font-family="Helvetica,sans-Serif" font-size="10.00">include/bibliotecario.hpp</text>
</a>
</g>
</g>
<!-- Node2 -->
<g id="node2" class="node">
<title>Node2</title>
<g id="a_node2"><a xlink:title=" ">
<polygon fill="white" stroke="#bfbfbf" points="32.5,-0.5 32.5,-19.5 76.5,-19.5 76.5,-0.5 32.5,-0.5"/>
<text text-anchor="middle" x="54.5" y="-7.5" font-family="Helvetica,sans-Serif" font-size="10.00">string</text>
</a>
</g>
</g>
<!-- Node1&#45;&gt;Node2 -->
<g id="edge1" class="edge">
<title>Node1&#45;&gt;Node2</title>
<path fill="none" stroke="midnightblue" d="M55.72,-168.37C45.11,-160.36 30.77,-147.38 24.5,-132 10.07,-96.59 29.84,-52.43 43.48,-28.46"/>
<polygon fill="midnightblue" stroke="midnightblue" points="46.55,-30.16 48.67,-19.78 40.54,-26.57 46.55,-30.16"/>
</g>
<!-- Node3 -->
<g id="node3" class="node">
<title>Node3</title>
<g id="a_node3"><a xlink:href="cliente_8hpp.html" target="_top" xlink:title="Armazena as caracteristicas do Cliente,.">
<polygon fill="white" stroke="black" points="33,-112.5 33,-131.5 104,-131.5 104,-112.5 33,-112.5"/>
<text text-anchor="middle" x="68.5" y="-119.5" font-family="Helvetica,sans-Serif" font-size="10.00">cliente.hpp</text>
</a>
</g>
</g>
<!-- Node1&#45;&gt;Node3 -->
<g id="edge2" class="edge">
<title>Node1&#45;&gt;Node3</title>
<path fill="none" stroke="midnightblue" d="M68.5,-168.08C68.5,-161.01 68.5,-150.86 68.5,-141.99"/>
<polygon fill="midnightblue" stroke="midnightblue" points="72,-141.75 68.5,-131.75 65,-141.75 72,-141.75"/>
</g>
<!-- Node4 -->
<g id="node4" class="node">
<title>Node4</title>
<g id="a_node4"><a xlink:href="usuario_8hpp.html" target="_top" xlink:title=" ">
<polygon fill="white" stroke="black" points="82.5,-56.5 82.5,-75.5 156.5,-75.5 156.5,-56.5 82.5,-56.5"/>
<text text-anchor="middle" x="119.5" y="-63.5" font-family="Helvetica,sans-Serif" font-size="10.00">usuario.hpp</text>
</a>
</g>
</g>
<!-- Node1&#45;&gt;Node4 -->
<g id="edge6" class="edge">
<title>Node1&#45;&gt;Node4</title>
<path fill="none" stroke="midnightblue" d="M81.21,-168.28C91.84,-160.22 106.37,-147.2 113.5,-132 120.27,-117.57 121.41,-99.38 121.07,-85.92"/>
<polygon fill="midnightblue" stroke="midnightblue" points="124.56,-85.7 120.52,-75.9 117.57,-86.08 124.56,-85.7"/>
</g>
<!-- Node3&#45;&gt;Node2 -->
<g id="edge5" class="edge">
<title>Node3&#45;&gt;Node2</title>
<path fill="none" stroke="midnightblue" d="M67.4,-112.37C65.14,-94.62 59.93,-53.67 56.87,-29.6"/>
<polygon fill="midnightblue" stroke="midnightblue" points="60.33,-29.07 55.59,-19.59 53.38,-29.95 60.33,-29.07"/>
</g>
<!-- Node3&#45;&gt;Node4 -->
<g id="edge3" class="edge">
<title>Node3&#45;&gt;Node4</title>
<path fill="none" stroke="midnightblue" d="M76.92,-112.08C84.35,-104.22 95.35,-92.57 104.31,-83.08"/>
<polygon fill="midnightblue" stroke="midnightblue" points="106.91,-85.42 111.24,-75.75 101.82,-80.62 106.91,-85.42"/>
</g>
<!-- Node4&#45;&gt;Node2 -->
<g id="edge4" class="edge">
<title>Node4&#45;&gt;Node2</title>
<path fill="none" stroke="midnightblue" d="M109.06,-56.32C99.35,-48.26 84.68,-36.08 73,-26.37"/>
<polygon fill="midnightblue" stroke="midnightblue" points="75.06,-23.53 65.13,-19.83 70.59,-28.92 75.06,-23.53"/>
</g>
</g>
</svg>
