<?xml version="1.0" encoding="UTF-8" standalone="no"?>
<!DOCTYPE svg PUBLIC "-//W3C//DTD SVG 1.1//EN"
 "http://www.w3.org/Graphics/SVG/1.1/DTD/svg11.dtd">
<!-- Generated by graphviz version 2.43.0 (0)
 -->
<!-- Title: Usuario Pages: 1 -->
<svg width="112pt" height="376pt"
 viewBox="0.00 0.00 112.00 376.00" xmlns="http://www.w3.org/2000/svg" xmlns:xlink="http://www.w3.org/1999/xlink">
<g id="graph0" class="graph" transform="scale(1 1) rotate(0) translate(4 372)">
<title>Usuario</title>
<polygon fill="white" stroke="transparent" points="-4,4 -4,-372 108,-372 108,4 -4,4"/>
<!-- Node1 -->
<g id="node1" class="node">
<title>Node1</title>
<g id="a_node1"><a xlink:title="Classe usuario,.">
<polygon fill="#bfbfbf" stroke="black" points="6,-0.5 6,-123.5 98,-123.5 98,-0.5 6,-0.5"/>
<text text-anchor="middle" x="52" y="-111.5" font-family="Helvetica,sans-Serif" font-size="10.00">Usuario</text>
<polyline fill="none" stroke="black" points="6,-104.5 98,-104.5 "/>
<text text-anchor="middle" x="52" y="-92.5" font-family="Helvetica,sans-Serif" font-size="10.00"> </text>
<polyline fill="none" stroke="black" points="6,-85.5 98,-85.5 "/>
<text text-anchor="start" x="14" y="-73.5" font-family="Helvetica,sans-Serif" font-size="10.00">+ Usuario()</text>
<text text-anchor="start" x="14" y="-62.5" font-family="Helvetica,sans-Serif" font-size="10.00">+ getNome()</text>
<text text-anchor="start" x="14" y="-51.5" font-family="Helvetica,sans-Serif" font-size="10.00">+ getSenha()</text>
<text text-anchor="start" x="14" y="-40.5" font-family="Helvetica,sans-Serif" font-size="10.00">+ getEmail()</text>
<text text-anchor="start" x="14" y="-29.5" font-family="Helvetica,sans-Serif" font-size="10.00">+ getTelefone()</text>
<text text-anchor="start" x="14" y="-18.5" font-family="Helvetica,sans-Serif" font-size="10.00">+ exibeMenu()</text>
<text text-anchor="start" x="14" y="-7.5" font-family="Helvetica,sans-Serif" font-size="10.00">+ verPerfil()</text>
</a>
</g>
</g>
<!-- Node2 -->
<g id="node2" class="node">
<title>Node2</title>
<g id="a_node2"><a xlink:title=" ">
<polygon fill="white" stroke="#bfbfbf" points="19.5,-204.5 19.5,-261.5 84.5,-261.5 84.5,-204.5 19.5,-204.5"/>
<text text-anchor="middle" x="52" y="-249.5" font-family="Helvetica,sans-Serif" font-size="10.00">std::string</text>
<polyline fill="none" stroke="#bfbfbf" points="19.5,-242.5 84.5,-242.5 "/>
<text text-anchor="middle" x="52" y="-230.5" font-family="Helvetica,sans-Serif" font-size="10.00"> </text>
<polyline fill="none" stroke="#bfbfbf" points="19.5,-223.5 84.5,-223.5 "/>
<text text-anchor="middle" x="52" y="-211.5" font-family="Helvetica,sans-Serif" font-size="10.00"> </text>
</a>
</g>
</g>
<!-- Node2&#45;&gt;Node1 -->
<g id="edge1" class="edge">
<title>Node2&#45;&gt;Node1</title>
<path fill="none" stroke="#404040" d="M52,-204.47C52,-185.83 52,-160.26 52,-135.98"/>
<polygon fill="none" stroke="#404040" points="52,-135.83 48,-129.83 52,-123.83 56,-129.83 52,-135.83"/>
<text text-anchor="middle" x="76.5" y="-178" font-family="Helvetica,sans-Serif" font-size="10.00"> #email</text>
<text text-anchor="middle" x="76.5" y="-167" font-family="Helvetica,sans-Serif" font-size="10.00">#nome</text>
<text text-anchor="middle" x="76.5" y="-156" font-family="Helvetica,sans-Serif" font-size="10.00">#senha</text>
<text text-anchor="middle" x="76.5" y="-145" font-family="Helvetica,sans-Serif" font-size="10.00">#telefone</text>
</g>
<!-- Node3 -->
<g id="node3" class="node">
<title>Node3</title>
<g id="a_node3"><a xlink:title=" ">
<polygon fill="white" stroke="#bfbfbf" points="0,-299.5 0,-367.5 104,-367.5 104,-299.5 0,-299.5"/>
<text text-anchor="start" x="8" y="-355.5" font-family="Helvetica,sans-Serif" font-size="10.00">std::basic_string&lt;</text>
<text text-anchor="middle" x="52" y="-344.5" font-family="Helvetica,sans-Serif" font-size="10.00"> Char &gt;</text>
<polyline fill="none" stroke="#bfbfbf" points="0,-337.5 104,-337.5 "/>
<text text-anchor="middle" x="52" y="-325.5" font-family="Helvetica,sans-Serif" font-size="10.00"> </text>
<polyline fill="none" stroke="#bfbfbf" points="0,-318.5 104,-318.5 "/>
<text text-anchor="middle" x="52" y="-306.5" font-family="Helvetica,sans-Serif" font-size="10.00"> </text>
</a>
</g>
</g>
<!-- Node3&#45;&gt;Node2 -->
<g id="edge2" class="edge">
<title>Node3&#45;&gt;Node2</title>
<path fill="none" stroke="midnightblue" d="M52,-289.38C52,-279.94 52,-270.2 52,-261.57"/>
<polygon fill="none" stroke="midnightblue" points="48.5,-289.43 52,-299.43 55.5,-289.43 48.5,-289.43"/>
</g>
</g>
</svg>
