<?xml version="1.0" encoding="UTF-8" standalone="no"?>
<!DOCTYPE svg PUBLIC "-//W3C//DTD SVG 1.1//EN"
 "http://www.w3.org/Graphics/SVG/1.1/DTD/svg11.dtd">
<!-- Generated by graphviz version 2.43.0 (0)
 -->
<!-- Title: Cliente Pages: 1 -->
<svg width="154pt" height="581pt"
 viewBox="0.00 0.00 154.00 581.00" xmlns="http://www.w3.org/2000/svg" xmlns:xlink="http://www.w3.org/1999/xlink">
<g id="graph0" class="graph" transform="scale(1 1) rotate(0) translate(4 577)">
<title>Cliente</title>
<polygon fill="white" stroke="transparent" points="-4,4 -4,-577 150,-577 150,4 -4,4"/>
<!-- Node1 -->
<g id="node1" class="node">
<title>Node1</title>
<g id="a_node1"><a xlink:title="Classe Cliente,.">
<polygon fill="#bfbfbf" stroke="black" points="0,-0.5 0,-167.5 146,-167.5 146,-0.5 0,-0.5"/>
<text text-anchor="middle" x="73" y="-155.5" font-family="Helvetica,sans-Serif" font-size="10.00">Cliente</text>
<polyline fill="none" stroke="black" points="0,-148.5 146,-148.5 "/>
<text text-anchor="middle" x="73" y="-136.5" font-family="Helvetica,sans-Serif" font-size="10.00"> </text>
<polyline fill="none" stroke="black" points="0,-129.5 146,-129.5 "/>
<text text-anchor="start" x="8" y="-117.5" font-family="Helvetica,sans-Serif" font-size="10.00">+ Cliente()</text>
<text text-anchor="start" x="8" y="-106.5" font-family="Helvetica,sans-Serif" font-size="10.00">+ reservarLivro()</text>
<text text-anchor="start" x="8" y="-95.5" font-family="Helvetica,sans-Serif" font-size="10.00">+ renovarReserva()</text>
<text text-anchor="start" x="8" y="-84.5" font-family="Helvetica,sans-Serif" font-size="10.00">+ pagarMulta()</text>
<text text-anchor="start" x="8" y="-73.5" font-family="Helvetica,sans-Serif" font-size="10.00">+ conferirMulta()</text>
<text text-anchor="start" x="8" y="-62.5" font-family="Helvetica,sans-Serif" font-size="10.00">+ pesquisarLivroNome()</text>
<text text-anchor="start" x="8" y="-51.5" font-family="Helvetica,sans-Serif" font-size="10.00">+ pesquisarLivroAutor()</text>
<text text-anchor="start" x="8" y="-40.5" font-family="Helvetica,sans-Serif" font-size="10.00">+ pesquisarLivroAssunto()</text>
<text text-anchor="start" x="8" y="-29.5" font-family="Helvetica,sans-Serif" font-size="10.00">+ verPerfil()</text>
<text text-anchor="start" x="8" y="-18.5" font-family="Helvetica,sans-Serif" font-size="10.00">+ exibeMenu()</text>
<text text-anchor="start" x="8" y="-7.5" font-family="Helvetica,sans-Serif" font-size="10.00">+ ~Cliente()</text>
</a>
</g>
</g>
<!-- Node2 -->
<g id="node2" class="node">
<title>Node2</title>
<g id="a_node2"><a xlink:href="classUsuario.html" target="_top" xlink:title="Classe usuario,.">
<polygon fill="white" stroke="black" points="27,-205.5 27,-328.5 119,-328.5 119,-205.5 27,-205.5"/>
<text text-anchor="middle" x="73" y="-316.5" font-family="Helvetica,sans-Serif" font-size="10.00">Usuario</text>
<polyline fill="none" stroke="black" points="27,-309.5 119,-309.5 "/>
<text text-anchor="middle" x="73" y="-297.5" font-family="Helvetica,sans-Serif" font-size="10.00"> </text>
<polyline fill="none" stroke="black" points="27,-290.5 119,-290.5 "/>
<text text-anchor="start" x="35" y="-278.5" font-family="Helvetica,sans-Serif" font-size="10.00">+ Usuario()</text>
<text text-anchor="start" x="35" y="-267.5" font-family="Helvetica,sans-Serif" font-size="10.00">+ getNome()</text>
<text text-anchor="start" x="35" y="-256.5" font-family="Helvetica,sans-Serif" font-size="10.00">+ getSenha()</text>
<text text-anchor="start" x="35" y="-245.5" font-family="Helvetica,sans-Serif" font-size="10.00">+ getEmail()</text>
<text text-anchor="start" x="35" y="-234.5" font-family="Helvetica,sans-Serif" font-size="10.00">+ getTelefone()</text>
<text text-anchor="start" x="35" y="-223.5" font-family="Helvetica,sans-Serif" font-size="10.00">+ exibeMenu()</text>
<text text-anchor="start" x="35" y="-212.5" font-family="Helvetica,sans-Serif" font-size="10.00">+ verPerfil()</text>
</a>
</g>
</g>
<!-- Node2&#45;&gt;Node1 -->
<g id="edge1" class="edge">
<title>Node2&#45;&gt;Node1</title>
<path fill="none" stroke="midnightblue" d="M73,-195.37C73,-186.29 73,-176.93 73,-167.69"/>
<polygon fill="none" stroke="midnightblue" points="69.5,-195.48 73,-205.48 76.5,-195.48 69.5,-195.48"/>
</g>
<!-- Node3 -->
<g id="node3" class="node">
<title>Node3</title>
<g id="a_node3"><a xlink:title=" ">
<polygon fill="white" stroke="#bfbfbf" points="40.5,-409.5 40.5,-466.5 105.5,-466.5 105.5,-409.5 40.5,-409.5"/>
<text text-anchor="middle" x="73" y="-454.5" font-family="Helvetica,sans-Serif" font-size="10.00">std::string</text>
<polyline fill="none" stroke="#bfbfbf" points="40.5,-447.5 105.5,-447.5 "/>
<text text-anchor="middle" x="73" y="-435.5" font-family="Helvetica,sans-Serif" font-size="10.00"> </text>
<polyline fill="none" stroke="#bfbfbf" points="40.5,-428.5 105.5,-428.5 "/>
<text text-anchor="middle" x="73" y="-416.5" font-family="Helvetica,sans-Serif" font-size="10.00"> </text>
</a>
</g>
</g>
<!-- Node3&#45;&gt;Node2 -->
<g id="edge2" class="edge">
<title>Node3&#45;&gt;Node2</title>
<path fill="none" stroke="#404040" d="M73,-409.47C73,-390.83 73,-365.26 73,-340.98"/>
<polygon fill="none" stroke="#404040" points="73,-340.83 69,-334.83 73,-328.83 77,-334.83 73,-340.83"/>
<text text-anchor="middle" x="97.5" y="-383" font-family="Helvetica,sans-Serif" font-size="10.00"> #email</text>
<text text-anchor="middle" x="97.5" y="-372" font-family="Helvetica,sans-Serif" font-size="10.00">#nome</text>
<text text-anchor="middle" x="97.5" y="-361" font-family="Helvetica,sans-Serif" font-size="10.00">#senha</text>
<text text-anchor="middle" x="97.5" y="-350" font-family="Helvetica,sans-Serif" font-size="10.00">#telefone</text>
</g>
<!-- Node4 -->
<g id="node4" class="node">
<title>Node4</title>
<g id="a_node4"><a xlink:title=" ">
<polygon fill="white" stroke="#bfbfbf" points="21,-504.5 21,-572.5 125,-572.5 125,-504.5 21,-504.5"/>
<text text-anchor="start" x="29" y="-560.5" font-family="Helvetica,sans-Serif" font-size="10.00">std::basic_string&lt;</text>
<text text-anchor="middle" x="73" y="-549.5" font-family="Helvetica,sans-Serif" font-size="10.00"> Char &gt;</text>
<polyline fill="none" stroke="#bfbfbf" points="21,-542.5 125,-542.5 "/>
<text text-anchor="middle" x="73" y="-530.5" font-family="Helvetica,sans-Serif" font-size="10.00"> </text>
<polyline fill="none" stroke="#bfbfbf" points="21,-523.5 125,-523.5 "/>
<text text-anchor="middle" x="73" y="-511.5" font-family="Helvetica,sans-Serif" font-size="10.00"> </text>
</a>
</g>
</g>
<!-- Node4&#45;&gt;Node3 -->
<g id="edge3" class="edge">
<title>Node4&#45;&gt;Node3</title>
<path fill="none" stroke="midnightblue" d="M73,-494.38C73,-484.94 73,-475.2 73,-466.57"/>
<polygon fill="none" stroke="midnightblue" points="69.5,-494.43 73,-504.43 76.5,-494.43 69.5,-494.43"/>
</g>
</g>
</svg>
