<?xml version="1.0" encoding="UTF-8" standalone="no"?>
<!DOCTYPE svg PUBLIC "-//W3C//DTD SVG 1.1//EN"
 "http://www.w3.org/Graphics/SVG/1.1/DTD/svg11.dtd">
<!-- Generated by graphviz version 2.43.0 (0)
 -->
<!-- Title: Cliente Pages: 1 -->
<svg width="154pt" height="369pt"
 viewBox="0.00 0.00 154.00 369.00" xmlns="http://www.w3.org/2000/svg" xmlns:xlink="http://www.w3.org/1999/xlink">
<g id="graph0" class="graph" transform="scale(1 1) rotate(0) translate(4 365)">
<title>Cliente</title>
<polygon fill="white" stroke="transparent" points="-4,4 -4,-365 150,-365 150,4 -4,4"/>
<!-- Node1 -->
<g id="node1" class="node">
<title>Node1</title>
<g id="a_node1"><a xlink:title="Classe Cliente,.">
<polygon fill="#bfbfbf" stroke="black" points="0,-0.5 0,-167.5 146,-167.5 146,-0.5 0,-0.5"/>
<text text-anchor="middle" x="73" y="-155.5" font-family="Helvetica,sans-Serif" font-size="10.00">Cliente</text>
<polyline fill="none" stroke="black" points="0,-148.5 146,-148.5 "/>
<text text-anchor="middle" x="73" y="-136.5" font-family="Helvetica,sans-Serif" font-size="10.00"> </text>
<polyline fill="none" stroke="black" points="0,-129.5 146,-129.5 "/>
<text text-anchor="start" x="8" y="-117.5" font-family="Helvetica,sans-Serif" font-size="10.00">+ Cliente()</text>
<text text-anchor="start" x="8" y="-106.5" font-family="Helvetica,sans-Serif" font-size="10.00">+ reservarLivro()</text>
<text text-anchor="start" x="8" y="-95.5" font-family="Helvetica,sans-Serif" font-size="10.00">+ renovarReserva()</text>
<text text-anchor="start" x="8" y="-84.5" font-family="Helvetica,sans-Serif" font-size="10.00">+ pagarMulta()</text>
<text text-anchor="start" x="8" y="-73.5" font-family="Helvetica,sans-Serif" font-size="10.00">+ conferirMulta()</text>
<text text-anchor="start" x="8" y="-62.5" font-family="Helvetica,sans-Serif" font-size="10.00">+ pesquisarLivroNome()</text>
<text text-anchor="start" x="8" y="-51.5" font-family="Helvetica,sans-Serif" font-size="10.00">+ pesquisarLivroAutor()</text>
<text text-anchor="start" x="8" y="-40.5" font-family="Helvetica,sans-Serif" font-size="10.00">+ pesquisarLivroAssunto()</text>
<text text-anchor="start" x="8" y="-29.5" font-family="Helvetica,sans-Serif" font-size="10.00">+ verPerfil()</text>
<text text-anchor="start" x="8" y="-18.5" font-family="Helvetica,sans-Serif" font-size="10.00">+ exibeMenu()</text>
<text text-anchor="start" x="8" y="-7.5" font-family="Helvetica,sans-Serif" font-size="10.00">+ ~Cliente()</text>
</a>
</g>
</g>
<!-- Node2 -->
<g id="node2" class="node">
<title>Node2</title>
<g id="a_node2"><a xlink:href="classUsuario.html" target="_top" xlink:title="Classe usuario,.">
<polygon fill="white" stroke="black" points="27,-204.5 27,-360.5 119,-360.5 119,-204.5 27,-204.5"/>
<text text-anchor="middle" x="73" y="-348.5" font-family="Helvetica,sans-Serif" font-size="10.00">Usuario</text>
<polyline fill="none" stroke="black" points="27,-341.5 119,-341.5 "/>
<text text-anchor="start" x="35" y="-329.5" font-family="Helvetica,sans-Serif" font-size="10.00"># nome</text>
<text text-anchor="start" x="35" y="-318.5" font-family="Helvetica,sans-Serif" font-size="10.00"># senha</text>
<text text-anchor="start" x="35" y="-307.5" font-family="Helvetica,sans-Serif" font-size="10.00"># email</text>
<text text-anchor="start" x="35" y="-296.5" font-family="Helvetica,sans-Serif" font-size="10.00"># telefone</text>
<polyline fill="none" stroke="black" points="27,-289.5 119,-289.5 "/>
<text text-anchor="start" x="35" y="-277.5" font-family="Helvetica,sans-Serif" font-size="10.00">+ Usuario()</text>
<text text-anchor="start" x="35" y="-266.5" font-family="Helvetica,sans-Serif" font-size="10.00">+ getNome()</text>
<text text-anchor="start" x="35" y="-255.5" font-family="Helvetica,sans-Serif" font-size="10.00">+ getSenha()</text>
<text text-anchor="start" x="35" y="-244.5" font-family="Helvetica,sans-Serif" font-size="10.00">+ getEmail()</text>
<text text-anchor="start" x="35" y="-233.5" font-family="Helvetica,sans-Serif" font-size="10.00">+ getTelefone()</text>
<text text-anchor="start" x="35" y="-222.5" font-family="Helvetica,sans-Serif" font-size="10.00">+ exibeMenu()</text>
<text text-anchor="start" x="35" y="-211.5" font-family="Helvetica,sans-Serif" font-size="10.00">+ verPerfil()</text>
</a>
</g>
</g>
<!-- Node2&#45;&gt;Node1 -->
<g id="edge1" class="edge">
<title>Node2&#45;&gt;Node1</title>
<path fill="none" stroke="midnightblue" d="M73,-194.15C73,-185.36 73,-176.45 73,-167.71"/>
<polygon fill="none" stroke="midnightblue" points="69.5,-194.4 73,-204.4 76.5,-194.4 69.5,-194.4"/>
</g>
</g>
</svg>
