<?xml version="1.0" encoding="UTF-8" standalone="no"?>
<!DOCTYPE svg PUBLIC "-//W3C//DTD SVG 1.1//EN"
 "http://www.w3.org/Graphics/SVG/1.1/DTD/svg11.dtd">
<!-- Generated by graphviz version 2.43.0 (0)
 -->
<!-- Title: Bibliotecario Pages: 1 -->
<svg width="154pt" height="380pt"
 viewBox="0.00 0.00 154.00 380.00" xmlns="http://www.w3.org/2000/svg" xmlns:xlink="http://www.w3.org/1999/xlink">
<g id="graph0" class="graph" transform="scale(1 1) rotate(0) translate(4 376)">
<title>Bibliotecario</title>
<polygon fill="white" stroke="transparent" points="-4,4 -4,-376 150,-376 150,4 -4,4"/>
<!-- Node1 -->
<g id="node1" class="node">
<title>Node1</title>
<g id="a_node1"><a xlink:title="Classe Bibliotecario,.">
<polygon fill="#bfbfbf" stroke="black" points="0,-0.5 0,-178.5 146,-178.5 146,-0.5 0,-0.5"/>
<text text-anchor="middle" x="73" y="-166.5" font-family="Helvetica,sans-Serif" font-size="10.00">Bibliotecario</text>
<polyline fill="none" stroke="black" points="0,-159.5 146,-159.5 "/>
<text text-anchor="middle" x="73" y="-147.5" font-family="Helvetica,sans-Serif" font-size="10.00"> </text>
<polyline fill="none" stroke="black" points="0,-140.5 146,-140.5 "/>
<text text-anchor="start" x="8" y="-128.5" font-family="Helvetica,sans-Serif" font-size="10.00">+ Bibliotecario()</text>
<text text-anchor="start" x="8" y="-117.5" font-family="Helvetica,sans-Serif" font-size="10.00">+ verPerfil()</text>
<text text-anchor="start" x="8" y="-106.5" font-family="Helvetica,sans-Serif" font-size="10.00">+ emprestarLivro()</text>
<text text-anchor="start" x="8" y="-95.5" font-family="Helvetica,sans-Serif" font-size="10.00">+ cadastrarLivro()</text>
<text text-anchor="start" x="8" y="-84.5" font-family="Helvetica,sans-Serif" font-size="10.00">+ cadastrarPrateleira()</text>
<text text-anchor="start" x="8" y="-73.5" font-family="Helvetica,sans-Serif" font-size="10.00">+ cadastrarEstante()</text>
<text text-anchor="start" x="8" y="-62.5" font-family="Helvetica,sans-Serif" font-size="10.00">+ cadastrarCliente()</text>
<text text-anchor="start" x="8" y="-51.5" font-family="Helvetica,sans-Serif" font-size="10.00">+ pesquisarLivroNome()</text>
<text text-anchor="start" x="8" y="-40.5" font-family="Helvetica,sans-Serif" font-size="10.00">+ pesquisarLivroAutor()</text>
<text text-anchor="start" x="8" y="-29.5" font-family="Helvetica,sans-Serif" font-size="10.00">+ pesquisarLivroAssunto()</text>
<text text-anchor="start" x="8" y="-18.5" font-family="Helvetica,sans-Serif" font-size="10.00">+ exibeMenu()</text>
<text text-anchor="start" x="8" y="-7.5" font-family="Helvetica,sans-Serif" font-size="10.00">+ ~Bibliotecario()</text>
</a>
</g>
</g>
<!-- Node2 -->
<g id="node2" class="node">
<title>Node2</title>
<g id="a_node2"><a xlink:href="classUsuario.html" target="_top" xlink:title="Classe usuario,.">
<polygon fill="white" stroke="black" points="27,-215.5 27,-371.5 119,-371.5 119,-215.5 27,-215.5"/>
<text text-anchor="middle" x="73" y="-359.5" font-family="Helvetica,sans-Serif" font-size="10.00">Usuario</text>
<polyline fill="none" stroke="black" points="27,-352.5 119,-352.5 "/>
<text text-anchor="start" x="35" y="-340.5" font-family="Helvetica,sans-Serif" font-size="10.00"># nome</text>
<text text-anchor="start" x="35" y="-329.5" font-family="Helvetica,sans-Serif" font-size="10.00"># senha</text>
<text text-anchor="start" x="35" y="-318.5" font-family="Helvetica,sans-Serif" font-size="10.00"># email</text>
<text text-anchor="start" x="35" y="-307.5" font-family="Helvetica,sans-Serif" font-size="10.00"># telefone</text>
<polyline fill="none" stroke="black" points="27,-300.5 119,-300.5 "/>
<text text-anchor="start" x="35" y="-288.5" font-family="Helvetica,sans-Serif" font-size="10.00">+ Usuario()</text>
<text text-anchor="start" x="35" y="-277.5" font-family="Helvetica,sans-Serif" font-size="10.00">+ getNome()</text>
<text text-anchor="start" x="35" y="-266.5" font-family="Helvetica,sans-Serif" font-size="10.00">+ getSenha()</text>
<text text-anchor="start" x="35" y="-255.5" font-family="Helvetica,sans-Serif" font-size="10.00">+ getEmail()</text>
<text text-anchor="start" x="35" y="-244.5" font-family="Helvetica,sans-Serif" font-size="10.00">+ getTelefone()</text>
<text text-anchor="start" x="35" y="-233.5" font-family="Helvetica,sans-Serif" font-size="10.00">+ exibeMenu()</text>
<text text-anchor="start" x="35" y="-222.5" font-family="Helvetica,sans-Serif" font-size="10.00">+ verPerfil()</text>
</a>
</g>
</g>
<!-- Node2&#45;&gt;Node1 -->
<g id="edge1" class="edge">
<title>Node2&#45;&gt;Node1</title>
<path fill="none" stroke="midnightblue" d="M73,-205.12C73,-196.4 73,-187.55 73,-178.83"/>
<polygon fill="none" stroke="midnightblue" points="69.5,-205.27 73,-215.27 76.5,-205.27 69.5,-205.27"/>
</g>
</g>
</svg>
