<?xml version="1.0" encoding="UTF-8" standalone="no"?>
<!DOCTYPE svg PUBLIC "-//W3C//DTD SVG 1.1//EN"
 "http://www.w3.org/Graphics/SVG/1.1/DTD/svg11.dtd">
<!-- Generated by graphviz version 2.43.0 (0)
 -->
<!-- Title: Bibliotecario Pages: 1 -->
<svg width="154pt" height="592pt"
 viewBox="0.00 0.00 154.00 592.00" xmlns="http://www.w3.org/2000/svg" xmlns:xlink="http://www.w3.org/1999/xlink">
<g id="graph0" class="graph" transform="scale(1 1) rotate(0) translate(4 588)">
<title>Bibliotecario</title>
<polygon fill="white" stroke="transparent" points="-4,4 -4,-588 150,-588 150,4 -4,4"/>
<!-- Node1 -->
<g id="node1" class="node">
<title>Node1</title>
<g id="a_node1"><a xlink:title="Classe Bibliotecario,.">
<polygon fill="#bfbfbf" stroke="black" points="0,-0.5 0,-178.5 146,-178.5 146,-0.5 0,-0.5"/>
<text text-anchor="middle" x="73" y="-166.5" font-family="Helvetica,sans-Serif" font-size="10.00">Bibliotecario</text>
<polyline fill="none" stroke="black" points="0,-159.5 146,-159.5 "/>
<text text-anchor="middle" x="73" y="-147.5" font-family="Helvetica,sans-Serif" font-size="10.00"> </text>
<polyline fill="none" stroke="black" points="0,-140.5 146,-140.5 "/>
<text text-anchor="start" x="8" y="-128.5" font-family="Helvetica,sans-Serif" font-size="10.00">+ Bibliotecario()</text>
<text text-anchor="start" x="8" y="-117.5" font-family="Helvetica,sans-Serif" font-size="10.00">+ verPerfil()</text>
<text text-anchor="start" x="8" y="-106.5" font-family="Helvetica,sans-Serif" font-size="10.00">+ emprestarLivro()</text>
<text text-anchor="start" x="8" y="-95.5" font-family="Helvetica,sans-Serif" font-size="10.00">+ cadastrarLivro()</text>
<text text-anchor="start" x="8" y="-84.5" font-family="Helvetica,sans-Serif" font-size="10.00">+ cadastrarPrateleira()</text>
<text text-anchor="start" x="8" y="-73.5" font-family="Helvetica,sans-Serif" font-size="10.00">+ cadastrarEstante()</text>
<text text-anchor="start" x="8" y="-62.5" font-family="Helvetica,sans-Serif" font-size="10.00">+ cadastrarCliente()</text>
<text text-anchor="start" x="8" y="-51.5" font-family="Helvetica,sans-Serif" font-size="10.00">+ pesquisarLivroNome()</text>
<text text-anchor="start" x="8" y="-40.5" font-family="Helvetica,sans-Serif" font-size="10.00">+ pesquisarLivroAutor()</text>
<text text-anchor="start" x="8" y="-29.5" font-family="Helvetica,sans-Serif" font-size="10.00">+ pesquisarLivroAssunto()</text>
<text text-anchor="start" x="8" y="-18.5" font-family="Helvetica,sans-Serif" font-size="10.00">+ exibeMenu()</text>
<text text-anchor="start" x="8" y="-7.5" font-family="Helvetica,sans-Serif" font-size="10.00">+ ~Bibliotecario()</text>
</a>
</g>
</g>
<!-- Node2 -->
<g id="node2" class="node">
<title>Node2</title>
<g id="a_node2"><a xlink:href="classUsuario.html" target="_top" xlink:title="Classe usuario,.">
<polygon fill="white" stroke="black" points="27,-216.5 27,-339.5 119,-339.5 119,-216.5 27,-216.5"/>
<text text-anchor="middle" x="73" y="-327.5" font-family="Helvetica,sans-Serif" font-size="10.00">Usuario</text>
<polyline fill="none" stroke="black" points="27,-320.5 119,-320.5 "/>
<text text-anchor="middle" x="73" y="-308.5" font-family="Helvetica,sans-Serif" font-size="10.00"> </text>
<polyline fill="none" stroke="black" points="27,-301.5 119,-301.5 "/>
<text text-anchor="start" x="35" y="-289.5" font-family="Helvetica,sans-Serif" font-size="10.00">+ Usuario()</text>
<text text-anchor="start" x="35" y="-278.5" font-family="Helvetica,sans-Serif" font-size="10.00">+ getNome()</text>
<text text-anchor="start" x="35" y="-267.5" font-family="Helvetica,sans-Serif" font-size="10.00">+ getSenha()</text>
<text text-anchor="start" x="35" y="-256.5" font-family="Helvetica,sans-Serif" font-size="10.00">+ getEmail()</text>
<text text-anchor="start" x="35" y="-245.5" font-family="Helvetica,sans-Serif" font-size="10.00">+ getTelefone()</text>
<text text-anchor="start" x="35" y="-234.5" font-family="Helvetica,sans-Serif" font-size="10.00">+ exibeMenu()</text>
<text text-anchor="start" x="35" y="-223.5" font-family="Helvetica,sans-Serif" font-size="10.00">+ verPerfil()</text>
</a>
</g>
</g>
<!-- Node2&#45;&gt;Node1 -->
<g id="edge1" class="edge">
<title>Node2&#45;&gt;Node1</title>
<path fill="none" stroke="midnightblue" d="M73,-206.33C73,-197.24 73,-187.84 73,-178.52"/>
<polygon fill="none" stroke="midnightblue" points="69.5,-206.45 73,-216.45 76.5,-206.45 69.5,-206.45"/>
</g>
<!-- Node3 -->
<g id="node3" class="node">
<title>Node3</title>
<g id="a_node3"><a xlink:title=" ">
<polygon fill="white" stroke="#bfbfbf" points="40.5,-420.5 40.5,-477.5 105.5,-477.5 105.5,-420.5 40.5,-420.5"/>
<text text-anchor="middle" x="73" y="-465.5" font-family="Helvetica,sans-Serif" font-size="10.00">std::string</text>
<polyline fill="none" stroke="#bfbfbf" points="40.5,-458.5 105.5,-458.5 "/>
<text text-anchor="middle" x="73" y="-446.5" font-family="Helvetica,sans-Serif" font-size="10.00"> </text>
<polyline fill="none" stroke="#bfbfbf" points="40.5,-439.5 105.5,-439.5 "/>
<text text-anchor="middle" x="73" y="-427.5" font-family="Helvetica,sans-Serif" font-size="10.00"> </text>
</a>
</g>
</g>
<!-- Node3&#45;&gt;Node2 -->
<g id="edge2" class="edge">
<title>Node3&#45;&gt;Node2</title>
<path fill="none" stroke="#404040" d="M73,-420.47C73,-401.83 73,-376.26 73,-351.98"/>
<polygon fill="none" stroke="#404040" points="73,-351.83 69,-345.83 73,-339.83 77,-345.83 73,-351.83"/>
<text text-anchor="middle" x="97.5" y="-394" font-family="Helvetica,sans-Serif" font-size="10.00"> #email</text>
<text text-anchor="middle" x="97.5" y="-383" font-family="Helvetica,sans-Serif" font-size="10.00">#nome</text>
<text text-anchor="middle" x="97.5" y="-372" font-family="Helvetica,sans-Serif" font-size="10.00">#senha</text>
<text text-anchor="middle" x="97.5" y="-361" font-family="Helvetica,sans-Serif" font-size="10.00">#telefone</text>
</g>
<!-- Node4 -->
<g id="node4" class="node">
<title>Node4</title>
<g id="a_node4"><a xlink:title=" ">
<polygon fill="white" stroke="#bfbfbf" points="21,-515.5 21,-583.5 125,-583.5 125,-515.5 21,-515.5"/>
<text text-anchor="start" x="29" y="-571.5" font-family="Helvetica,sans-Serif" font-size="10.00">std::basic_string&lt;</text>
<text text-anchor="middle" x="73" y="-560.5" font-family="Helvetica,sans-Serif" font-size="10.00"> Char &gt;</text>
<polyline fill="none" stroke="#bfbfbf" points="21,-553.5 125,-553.5 "/>
<text text-anchor="middle" x="73" y="-541.5" font-family="Helvetica,sans-Serif" font-size="10.00"> </text>
<polyline fill="none" stroke="#bfbfbf" points="21,-534.5 125,-534.5 "/>
<text text-anchor="middle" x="73" y="-522.5" font-family="Helvetica,sans-Serif" font-size="10.00"> </text>
</a>
</g>
</g>
<!-- Node4&#45;&gt;Node3 -->
<g id="edge3" class="edge">
<title>Node4&#45;&gt;Node3</title>
<path fill="none" stroke="midnightblue" d="M73,-505.38C73,-495.94 73,-486.2 73,-477.57"/>
<polygon fill="none" stroke="midnightblue" points="69.5,-505.43 73,-515.43 76.5,-505.43 69.5,-505.43"/>
</g>
</g>
</svg>
