<?xml version="1.0" encoding="UTF-8" standalone="no"?>
<!DOCTYPE svg PUBLIC "-//W3C//DTD SVG 1.1//EN"
 "http://www.w3.org/Graphics/SVG/1.1/DTD/svg11.dtd">
<!-- Generated by graphviz version 2.43.0 (0)
 -->
<!-- Title: Usuario Pages: 1 -->
<svg width="318pt" height="380pt"
 viewBox="0.00 0.00 318.00 380.00" xmlns="http://www.w3.org/2000/svg" xmlns:xlink="http://www.w3.org/1999/xlink">
<g id="graph0" class="graph" transform="scale(1 1) rotate(0) translate(4 376)">
<title>Usuario</title>
<polygon fill="white" stroke="transparent" points="-4,4 -4,-376 314,-376 314,4 -4,4"/>
<!-- Node1 -->
<g id="node1" class="node">
<title>Node1</title>
<g id="a_node1"><a xlink:title="Classe usuario,.">
<polygon fill="#bfbfbf" stroke="black" points="109,-215.5 109,-371.5 201,-371.5 201,-215.5 109,-215.5"/>
<text text-anchor="middle" x="155" y="-359.5" font-family="Helvetica,sans-Serif" font-size="10.00">Usuario</text>
<polyline fill="none" stroke="black" points="109,-352.5 201,-352.5 "/>
<text text-anchor="start" x="117" y="-340.5" font-family="Helvetica,sans-Serif" font-size="10.00"># nome</text>
<text text-anchor="start" x="117" y="-329.5" font-family="Helvetica,sans-Serif" font-size="10.00"># senha</text>
<text text-anchor="start" x="117" y="-318.5" font-family="Helvetica,sans-Serif" font-size="10.00"># email</text>
<text text-anchor="start" x="117" y="-307.5" font-family="Helvetica,sans-Serif" font-size="10.00"># telefone</text>
<polyline fill="none" stroke="black" points="109,-300.5 201,-300.5 "/>
<text text-anchor="start" x="117" y="-288.5" font-family="Helvetica,sans-Serif" font-size="10.00">+ Usuario()</text>
<text text-anchor="start" x="117" y="-277.5" font-family="Helvetica,sans-Serif" font-size="10.00">+ getNome()</text>
<text text-anchor="start" x="117" y="-266.5" font-family="Helvetica,sans-Serif" font-size="10.00">+ getSenha()</text>
<text text-anchor="start" x="117" y="-255.5" font-family="Helvetica,sans-Serif" font-size="10.00">+ getEmail()</text>
<text text-anchor="start" x="117" y="-244.5" font-family="Helvetica,sans-Serif" font-size="10.00">+ getTelefone()</text>
<text text-anchor="start" x="117" y="-233.5" font-family="Helvetica,sans-Serif" font-size="10.00">+ exibeMenu()</text>
<text text-anchor="start" x="117" y="-222.5" font-family="Helvetica,sans-Serif" font-size="10.00">+ verPerfil()</text>
</a>
</g>
</g>
<!-- Node2 -->
<g id="node2" class="node">
<title>Node2</title>
<g id="a_node2"><a xlink:href="classBibliotecario.html" target="_top" xlink:title="Classe Bibliotecario,.">
<polygon fill="white" stroke="black" points="0,-0.5 0,-178.5 146,-178.5 146,-0.5 0,-0.5"/>
<text text-anchor="middle" x="73" y="-166.5" font-family="Helvetica,sans-Serif" font-size="10.00">Bibliotecario</text>
<polyline fill="none" stroke="black" points="0,-159.5 146,-159.5 "/>
<text text-anchor="middle" x="73" y="-147.5" font-family="Helvetica,sans-Serif" font-size="10.00"> </text>
<polyline fill="none" stroke="black" points="0,-140.5 146,-140.5 "/>
<text text-anchor="start" x="8" y="-128.5" font-family="Helvetica,sans-Serif" font-size="10.00">+ Bibliotecario()</text>
<text text-anchor="start" x="8" y="-117.5" font-family="Helvetica,sans-Serif" font-size="10.00">+ verPerfil()</text>
<text text-anchor="start" x="8" y="-106.5" font-family="Helvetica,sans-Serif" font-size="10.00">+ emprestarLivro()</text>
<text text-anchor="start" x="8" y="-95.5" font-family="Helvetica,sans-Serif" font-size="10.00">+ cadastrarLivro()</text>
<text text-anchor="start" x="8" y="-84.5" font-family="Helvetica,sans-Serif" font-size="10.00">+ cadastrarPrateleira()</text>
<text text-anchor="start" x="8" y="-73.5" font-family="Helvetica,sans-Serif" font-size="10.00">+ cadastrarEstante()</text>
<text text-anchor="start" x="8" y="-62.5" font-family="Helvetica,sans-Serif" font-size="10.00">+ cadastrarCliente()</text>
<text text-anchor="start" x="8" y="-51.5" font-family="Helvetica,sans-Serif" font-size="10.00">+ pesquisarLivroNome()</text>
<text text-anchor="start" x="8" y="-40.5" font-family="Helvetica,sans-Serif" font-size="10.00">+ pesquisarLivroAutor()</text>
<text text-anchor="start" x="8" y="-29.5" font-family="Helvetica,sans-Serif" font-size="10.00">+ pesquisarLivroAssunto()</text>
<text text-anchor="start" x="8" y="-18.5" font-family="Helvetica,sans-Serif" font-size="10.00">+ exibeMenu()</text>
<text text-anchor="start" x="8" y="-7.5" font-family="Helvetica,sans-Serif" font-size="10.00">+ ~Bibliotecario()</text>
</a>
</g>
</g>
<!-- Node1&#45;&gt;Node2 -->
<g id="edge1" class="edge">
<title>Node1&#45;&gt;Node2</title>
<path fill="none" stroke="midnightblue" d="M119.87,-205.97C116.22,-196.98 112.51,-187.84 108.86,-178.83"/>
<polygon fill="none" stroke="midnightblue" points="116.64,-207.32 123.65,-215.27 123.13,-204.69 116.64,-207.32"/>
</g>
<!-- Node3 -->
<g id="node3" class="node">
<title>Node3</title>
<g id="a_node3"><a xlink:href="classCliente.html" target="_top" xlink:title="Classe Cliente,.">
<polygon fill="white" stroke="black" points="164,-6 164,-173 310,-173 310,-6 164,-6"/>
<text text-anchor="middle" x="237" y="-161" font-family="Helvetica,sans-Serif" font-size="10.00">Cliente</text>
<polyline fill="none" stroke="black" points="164,-154 310,-154 "/>
<text text-anchor="middle" x="237" y="-142" font-family="Helvetica,sans-Serif" font-size="10.00"> </text>
<polyline fill="none" stroke="black" points="164,-135 310,-135 "/>
<text text-anchor="start" x="172" y="-123" font-family="Helvetica,sans-Serif" font-size="10.00">+ Cliente()</text>
<text text-anchor="start" x="172" y="-112" font-family="Helvetica,sans-Serif" font-size="10.00">+ reservarLivro()</text>
<text text-anchor="start" x="172" y="-101" font-family="Helvetica,sans-Serif" font-size="10.00">+ renovarReserva()</text>
<text text-anchor="start" x="172" y="-90" font-family="Helvetica,sans-Serif" font-size="10.00">+ pagarMulta()</text>
<text text-anchor="start" x="172" y="-79" font-family="Helvetica,sans-Serif" font-size="10.00">+ conferirMulta()</text>
<text text-anchor="start" x="172" y="-68" font-family="Helvetica,sans-Serif" font-size="10.00">+ pesquisarLivroNome()</text>
<text text-anchor="start" x="172" y="-57" font-family="Helvetica,sans-Serif" font-size="10.00">+ pesquisarLivroAutor()</text>
<text text-anchor="start" x="172" y="-46" font-family="Helvetica,sans-Serif" font-size="10.00">+ pesquisarLivroAssunto()</text>
<text text-anchor="start" x="172" y="-35" font-family="Helvetica,sans-Serif" font-size="10.00">+ verPerfil()</text>
<text text-anchor="start" x="172" y="-24" font-family="Helvetica,sans-Serif" font-size="10.00">+ exibeMenu()</text>
<text text-anchor="start" x="172" y="-13" font-family="Helvetica,sans-Serif" font-size="10.00">+ ~Cliente()</text>
</a>
</g>
</g>
<!-- Node1&#45;&gt;Node3 -->
<g id="edge2" class="edge">
<title>Node1&#45;&gt;Node3</title>
<path fill="none" stroke="midnightblue" d="M190.2,-205.8C194.6,-194.94 199.1,-183.86 203.48,-173.06"/>
<polygon fill="none" stroke="midnightblue" points="186.87,-204.69 186.35,-215.27 193.36,-207.32 186.87,-204.69"/>
</g>
</g>
</svg>
