<?xml version="1.0" encoding="UTF-8" standalone="no"?>
<!DOCTYPE svg PUBLIC "-//W3C//DTD SVG 1.1//EN"
 "http://www.w3.org/Graphics/SVG/1.1/DTD/svg11.dtd">
<!-- Generated by graphviz version 2.43.0 (0)
 -->
<!-- Title: include/cliente.hpp Pages: 1 -->
<svg width="336pt" height="140pt"
 viewBox="0.00 0.00 336.00 140.00" xmlns="http://www.w3.org/2000/svg" xmlns:xlink="http://www.w3.org/1999/xlink">
<g id="graph0" class="graph" transform="scale(1 1) rotate(0) translate(4 136)">
<title>include/cliente.hpp</title>
<polygon fill="white" stroke="transparent" points="-4,4 -4,-136 332,-136 332,4 -4,4"/>
<!-- Node1 -->
<g id="node1" class="node">
<title>Node1</title>
<g id="a_node1"><a xlink:title="Armazena as caracteristicas do Cliente,.">
<polygon fill="#bfbfbf" stroke="black" points="109,-112.5 109,-131.5 218,-131.5 218,-112.5 109,-112.5"/>
<text text-anchor="middle" x="163.5" y="-119.5" font-family="Helvetica,sans-Serif" font-size="10.00">include/cliente.hpp</text>
</a>
</g>
</g>
<!-- Node2 -->
<g id="node2" class="node">
<title>Node2</title>
<g id="a_node2"><a xlink:href="bibliotecario_8hpp.html" target="_top" xlink:title="Armazena as caracteristicas do Bibliotecário.">
<polygon fill="white" stroke="black" points="47,-56.5 47,-75.5 184,-75.5 184,-56.5 47,-56.5"/>
<text text-anchor="middle" x="115.5" y="-63.5" font-family="Helvetica,sans-Serif" font-size="10.00">include/bibliotecario.hpp</text>
</a>
</g>
</g>
<!-- Node1&#45;&gt;Node2 -->
<g id="edge1" class="edge">
<title>Node1&#45;&gt;Node2</title>
<path fill="none" stroke="midnightblue" d="M148.77,-104.43C140.36,-94.97 130.15,-83.48 123.28,-75.75"/>
<polygon fill="midnightblue" stroke="midnightblue" points="146.31,-106.93 155.57,-112.08 151.55,-102.28 146.31,-106.93"/>
</g>
<!-- Node3 -->
<g id="node3" class="node">
<title>Node3</title>
<g id="a_node3"><a xlink:href="bibliotecario_8cpp.html" target="_top" xlink:title=" ">
<polygon fill="white" stroke="black" points="0,-0.5 0,-19.5 115,-19.5 115,-0.5 0,-0.5"/>
<text text-anchor="middle" x="57.5" y="-7.5" font-family="Helvetica,sans-Serif" font-size="10.00">src/bibliotecario.cpp</text>
</a>
</g>
</g>
<!-- Node1&#45;&gt;Node3 -->
<g id="edge4" class="edge">
<title>Node1&#45;&gt;Node3</title>
<path fill="none" stroke="midnightblue" d="M98.94,-113.46C75.67,-107.27 51.67,-96.1 37.5,-76 25.12,-58.44 40.45,-32.99 50.35,-19.75"/>
<polygon fill="midnightblue" stroke="midnightblue" points="98.31,-116.91 108.84,-115.82 99.93,-110.1 98.31,-116.91"/>
</g>
<!-- Node4 -->
<g id="node4" class="node">
<title>Node4</title>
<g id="a_node4"><a xlink:href="main_8cpp.html" target="_top" xlink:title=" ">
<polygon fill="white" stroke="black" points="153,-0.5 153,-19.5 232,-19.5 232,-0.5 153,-0.5"/>
<text text-anchor="middle" x="192.5" y="-7.5" font-family="Helvetica,sans-Serif" font-size="10.00">src/main.cpp</text>
</a>
</g>
</g>
<!-- Node1&#45;&gt;Node4 -->
<g id="edge6" class="edge">
<title>Node1&#45;&gt;Node4</title>
<path fill="none" stroke="midnightblue" d="M178,-104.4C184.05,-96.39 190.38,-86.3 193.5,-76 199.39,-56.56 196.5,-32.32 194.27,-19.64"/>
<polygon fill="midnightblue" stroke="midnightblue" points="175.27,-102.2 171.71,-112.18 180.72,-106.6 175.27,-102.2"/>
</g>
<!-- Node5 -->
<g id="node5" class="node">
<title>Node5</title>
<g id="a_node5"><a xlink:href="cliente_8cpp.html" target="_top" xlink:title=" ">
<polygon fill="white" stroke="black" points="241,-56.5 241,-75.5 328,-75.5 328,-56.5 241,-56.5"/>
<text text-anchor="middle" x="284.5" y="-63.5" font-family="Helvetica,sans-Serif" font-size="10.00">src/cliente.cpp</text>
</a>
</g>
</g>
<!-- Node1&#45;&gt;Node5 -->
<g id="edge5" class="edge">
<title>Node1&#45;&gt;Node5</title>
<path fill="none" stroke="midnightblue" d="M191.81,-108.37C214.47,-98.26 245.63,-84.35 265.42,-75.52"/>
<polygon fill="midnightblue" stroke="midnightblue" points="190.38,-105.17 182.67,-112.44 193.23,-111.56 190.38,-105.17"/>
</g>
<!-- Node2&#45;&gt;Node3 -->
<g id="edge2" class="edge">
<title>Node2&#45;&gt;Node3</title>
<path fill="none" stroke="midnightblue" d="M98.59,-49.25C88.3,-39.67 75.53,-27.79 66.99,-19.83"/>
<polygon fill="midnightblue" stroke="midnightblue" points="96.48,-52.07 106.18,-56.32 101.25,-46.95 96.48,-52.07"/>
</g>
<!-- Node2&#45;&gt;Node4 -->
<g id="edge3" class="edge">
<title>Node2&#45;&gt;Node4</title>
<path fill="none" stroke="midnightblue" d="M136.4,-50.34C150.41,-40.52 168.38,-27.91 180.16,-19.65"/>
<polygon fill="midnightblue" stroke="midnightblue" points="134.05,-47.72 127.87,-56.32 138.07,-53.45 134.05,-47.72"/>
</g>
</g>
</svg>
