<?xml version="1.0" encoding="UTF-8" standalone="no"?>
<!DOCTYPE svg PUBLIC "-//W3C//DTD SVG 1.1//EN"
 "http://www.w3.org/Graphics/SVG/1.1/DTD/svg11.dtd">
<!-- Generated by graphviz version 2.43.0 (0)
 -->
<!-- Title: src/cliente.cpp Pages: 1 -->
<svg width="248pt" height="196pt"
 viewBox="0.00 0.00 248.00 196.00" xmlns="http://www.w3.org/2000/svg" xmlns:xlink="http://www.w3.org/1999/xlink">
<g id="graph0" class="graph" transform="scale(1 1) rotate(0) translate(4 192)">
<title>src/cliente.cpp</title>
<polygon fill="white" stroke="transparent" points="-4,4 -4,-192 244,-192 244,4 -4,4"/>
<!-- Node1 -->
<g id="node1" class="node">
<title>Node1</title>
<g id="a_node1"><a xlink:title=" ">
<polygon fill="#bfbfbf" stroke="black" points="76.5,-168.5 76.5,-187.5 163.5,-187.5 163.5,-168.5 76.5,-168.5"/>
<text text-anchor="middle" x="120" y="-175.5" font-family="Helvetica,sans-Serif" font-size="10.00">src/cliente.cpp</text>
</a>
</g>
</g>
<!-- Node2 -->
<g id="node2" class="node">
<title>Node2</title>
<g id="a_node2"><a xlink:href="cliente_8hpp.html" target="_top" xlink:title="Armazena as caracteristicas do Cliente,.">
<polygon fill="white" stroke="black" points="52.5,-112.5 52.5,-131.5 123.5,-131.5 123.5,-112.5 52.5,-112.5"/>
<text text-anchor="middle" x="88" y="-119.5" font-family="Helvetica,sans-Serif" font-size="10.00">cliente.hpp</text>
</a>
</g>
</g>
<!-- Node1&#45;&gt;Node2 -->
<g id="edge1" class="edge">
<title>Node1&#45;&gt;Node2</title>
<path fill="none" stroke="midnightblue" d="M114.72,-168.08C110.29,-160.61 103.84,-149.72 98.38,-140.52"/>
<polygon fill="midnightblue" stroke="midnightblue" points="101.29,-138.57 93.19,-131.75 95.27,-142.14 101.29,-138.57"/>
</g>
<!-- Node3 -->
<g id="node3" class="node">
<title>Node3</title>
<g id="a_node3"><a xlink:href="usuario_8hpp.html" target="_top" xlink:title=" ">
<polygon fill="white" stroke="black" points="0,-56.5 0,-75.5 74,-75.5 74,-56.5 0,-56.5"/>
<text text-anchor="middle" x="37" y="-63.5" font-family="Helvetica,sans-Serif" font-size="10.00">usuario.hpp</text>
</a>
</g>
</g>
<!-- Node1&#45;&gt;Node3 -->
<g id="edge5" class="edge">
<title>Node1&#45;&gt;Node3</title>
<path fill="none" stroke="midnightblue" d="M92.94,-168.47C75.64,-161.52 54.39,-149.89 43,-132 34.35,-118.41 33.45,-99.86 34.37,-86.06"/>
<polygon fill="midnightblue" stroke="midnightblue" points="37.89,-86.1 35.44,-75.79 30.92,-85.38 37.89,-86.1"/>
</g>
<!-- Node4 -->
<g id="node4" class="node">
<title>Node4</title>
<g id="a_node4"><a xlink:title=" ">
<polygon fill="white" stroke="#bfbfbf" points="80,-0.5 80,-19.5 124,-19.5 124,-0.5 80,-0.5"/>
<text text-anchor="middle" x="102" y="-7.5" font-family="Helvetica,sans-Serif" font-size="10.00">string</text>
</a>
</g>
</g>
<!-- Node1&#45;&gt;Node4 -->
<g id="edge7" class="edge">
<title>Node1&#45;&gt;Node4</title>
<path fill="none" stroke="midnightblue" d="M123.34,-168.2C126.55,-159.24 131.18,-144.88 133,-132 138.29,-94.59 122.03,-52.06 111.09,-28.7"/>
<polygon fill="midnightblue" stroke="midnightblue" points="114.21,-27.12 106.67,-19.67 107.92,-30.19 114.21,-27.12"/>
</g>
<!-- Node5 -->
<g id="node5" class="node">
<title>Node5</title>
<g id="a_node5"><a xlink:title=" ">
<polygon fill="white" stroke="#bfbfbf" points="180,-112.5 180,-131.5 240,-131.5 240,-112.5 180,-112.5"/>
<text text-anchor="middle" x="210" y="-119.5" font-family="Helvetica,sans-Serif" font-size="10.00">iostream</text>
</a>
</g>
</g>
<!-- Node1&#45;&gt;Node5 -->
<g id="edge6" class="edge">
<title>Node1&#45;&gt;Node5</title>
<path fill="none" stroke="midnightblue" d="M134.46,-168.32C148.5,-159.9 170.05,-146.97 186.54,-137.07"/>
<polygon fill="midnightblue" stroke="midnightblue" points="188.8,-139.8 195.58,-131.65 185.2,-133.8 188.8,-139.8"/>
</g>
<!-- Node2&#45;&gt;Node3 -->
<g id="edge2" class="edge">
<title>Node2&#45;&gt;Node3</title>
<path fill="none" stroke="midnightblue" d="M79.58,-112.08C72.15,-104.22 61.15,-92.57 52.19,-83.08"/>
<polygon fill="midnightblue" stroke="midnightblue" points="54.68,-80.62 45.26,-75.75 49.59,-85.42 54.68,-80.62"/>
</g>
<!-- Node2&#45;&gt;Node4 -->
<g id="edge4" class="edge">
<title>Node2&#45;&gt;Node4</title>
<path fill="none" stroke="midnightblue" d="M89.1,-112.37C91.36,-94.62 96.57,-53.67 99.63,-29.6"/>
<polygon fill="midnightblue" stroke="midnightblue" points="103.12,-29.95 100.91,-19.59 96.17,-29.07 103.12,-29.95"/>
</g>
<!-- Node3&#45;&gt;Node4 -->
<g id="edge3" class="edge">
<title>Node3&#45;&gt;Node4</title>
<path fill="none" stroke="midnightblue" d="M47.44,-56.32C57.15,-48.26 71.82,-36.08 83.5,-26.37"/>
<polygon fill="midnightblue" stroke="midnightblue" points="85.91,-28.92 91.37,-19.83 81.44,-23.53 85.91,-28.92"/>
</g>
</g>
</svg>
