<?xml version="1.0" encoding="UTF-8" standalone="no"?>
<!DOCTYPE svg PUBLIC "-//W3C//DTD SVG 1.1//EN"
 "http://www.w3.org/Graphics/SVG/1.1/DTD/svg11.dtd">
<!-- Generated by graphviz version 2.43.0 (0)
 -->
<!-- Title: Graphical Class Hierarchy Pages: 1 -->
<svg width="176pt" height="66pt"
 viewBox="0.00 0.00 176.00 66.00" xmlns="http://www.w3.org/2000/svg" xmlns:xlink="http://www.w3.org/1999/xlink">
<g id="graph0" class="graph" transform="scale(1 1) rotate(0) translate(4 62)">
<title>Graphical Class Hierarchy</title>
<polygon fill="white" stroke="transparent" points="-4,4 -4,-62 172,-62 172,4 -4,4"/>
<!-- Node0 -->
<g id="node1" class="node">
<title>Node0</title>
<g id="a_node1"><a xlink:href="classUsuario.html" target="_top" xlink:title="Classe usuario,.">
<polygon fill="white" stroke="black" points="0,-19.5 0,-38.5 54,-38.5 54,-19.5 0,-19.5"/>
<text text-anchor="middle" x="27" y="-26.5" font-family="Helvetica,sans-Serif" font-size="10.00">Usuario</text>
</a>
</g>
</g>
<!-- Node1 -->
<g id="node2" class="node">
<title>Node1</title>
<g id="a_node2"><a xlink:href="classBibliotecario.html" target="_top" xlink:title="Classe Bibliotecario,.">
<polygon fill="white" stroke="black" points="90,-38.5 90,-57.5 168,-57.5 168,-38.5 90,-38.5"/>
<text text-anchor="middle" x="129" y="-45.5" font-family="Helvetica,sans-Serif" font-size="10.00">Bibliotecario</text>
</a>
</g>
</g>
<!-- Node0&#45;&gt;Node1 -->
<g id="edge1" class="edge">
<title>Node0&#45;&gt;Node1</title>
<path fill="none" stroke="midnightblue" d="M63.87,-35.82C72.25,-37.41 81.21,-39.11 89.68,-40.72"/>
<polygon fill="midnightblue" stroke="midnightblue" points="64.49,-32.37 54.01,-33.94 63.18,-39.25 64.49,-32.37"/>
</g>
<!-- Node2 -->
<g id="node3" class="node">
<title>Node2</title>
<g id="a_node3"><a xlink:href="classCliente.html" target="_top" xlink:title="Classe Cliente,.">
<polygon fill="white" stroke="black" points="103.5,-0.5 103.5,-19.5 154.5,-19.5 154.5,-0.5 103.5,-0.5"/>
<text text-anchor="middle" x="129" y="-7.5" font-family="Helvetica,sans-Serif" font-size="10.00">Cliente</text>
</a>
</g>
</g>
<!-- Node0&#45;&gt;Node2 -->
<g id="edge2" class="edge">
<title>Node0&#45;&gt;Node2</title>
<path fill="none" stroke="midnightblue" d="M64.13,-22.14C77.2,-19.65 91.65,-16.91 103.49,-14.66"/>
<polygon fill="midnightblue" stroke="midnightblue" points="63.18,-18.75 54.01,-24.06 64.49,-25.63 63.18,-18.75"/>
</g>
</g>
</svg>
