<?xml version="1.0" encoding="UTF-8" standalone="no"?>
<!DOCTYPE svg PUBLIC "-//W3C//DTD SVG 1.1//EN"
 "http://www.w3.org/Graphics/SVG/1.1/DTD/svg11.dtd">
<!-- Generated by graphviz version 2.43.0 (0)
 -->
<!-- Title: src/main.cpp Pages: 1 -->
<svg width="292pt" height="252pt"
 viewBox="0.00 0.00 292.00 252.00" xmlns="http://www.w3.org/2000/svg" xmlns:xlink="http://www.w3.org/1999/xlink">
<g id="graph0" class="graph" transform="scale(1 1) rotate(0) translate(4 248)">
<title>src/main.cpp</title>
<polygon fill="white" stroke="transparent" points="-4,4 -4,-248 288,-248 288,4 -4,4"/>
<!-- Node1 -->
<g id="node1" class="node">
<title>Node1</title>
<g id="a_node1"><a xlink:title=" ">
<polygon fill="#bfbfbf" stroke="black" points="86.5,-224.5 86.5,-243.5 165.5,-243.5 165.5,-224.5 86.5,-224.5"/>
<text text-anchor="middle" x="126" y="-231.5" font-family="Helvetica,sans-Serif" font-size="10.00">src/main.cpp</text>
</a>
</g>
</g>
<!-- Node2 -->
<g id="node2" class="node">
<title>Node2</title>
<g id="a_node2"><a xlink:title=" ">
<polygon fill="white" stroke="#bfbfbf" points="0,-168.5 0,-187.5 60,-187.5 60,-168.5 0,-168.5"/>
<text text-anchor="middle" x="30" y="-175.5" font-family="Helvetica,sans-Serif" font-size="10.00">iostream</text>
</a>
</g>
</g>
<!-- Node1&#45;&gt;Node2 -->
<g id="edge1" class="edge">
<title>Node1&#45;&gt;Node2</title>
<path fill="none" stroke="midnightblue" d="M110.58,-224.32C95.46,-215.82 72.18,-202.73 54.53,-192.8"/>
<polygon fill="midnightblue" stroke="midnightblue" points="55.82,-189.51 45.39,-187.65 52.39,-195.61 55.82,-189.51"/>
</g>
<!-- Node3 -->
<g id="node3" class="node">
<title>Node3</title>
<g id="a_node3"><a xlink:title=" ">
<polygon fill="white" stroke="#bfbfbf" points="129,-0.5 129,-19.5 173,-19.5 173,-0.5 129,-0.5"/>
<text text-anchor="middle" x="151" y="-7.5" font-family="Helvetica,sans-Serif" font-size="10.00">string</text>
</a>
</g>
</g>
<!-- Node1&#45;&gt;Node3 -->
<g id="edge2" class="edge">
<title>Node1&#45;&gt;Node3</title>
<path fill="none" stroke="midnightblue" d="M125.32,-224.4C123.49,-198.55 119.47,-119.46 133,-56 134.97,-46.74 138.69,-36.93 142.23,-28.84"/>
<polygon fill="midnightblue" stroke="midnightblue" points="145.45,-30.23 146.49,-19.68 139.1,-27.28 145.45,-30.23"/>
</g>
<!-- Node4 -->
<g id="node4" class="node">
<title>Node4</title>
<g id="a_node4"><a xlink:href="bibliotecario_8hpp.html" target="_top" xlink:title="Armazena as caracteristicas do Bibliotecário.">
<polygon fill="white" stroke="black" points="154,-168.5 154,-187.5 252,-187.5 252,-168.5 154,-168.5"/>
<text text-anchor="middle" x="203" y="-175.5" font-family="Helvetica,sans-Serif" font-size="10.00">bibliotecario.hpp</text>
</a>
</g>
</g>
<!-- Node1&#45;&gt;Node4 -->
<g id="edge3" class="edge">
<title>Node1&#45;&gt;Node4</title>
<path fill="none" stroke="midnightblue" d="M138.37,-224.32C150.16,-216.06 168.13,-203.45 182.14,-193.63"/>
<polygon fill="midnightblue" stroke="midnightblue" points="184.48,-196.26 190.66,-187.65 180.46,-190.53 184.48,-196.26"/>
</g>
<!-- Node5 -->
<g id="node5" class="node">
<title>Node5</title>
<g id="a_node5"><a xlink:href="cliente_8hpp.html" target="_top" xlink:title="Armazena as caracteristicas do Cliente,.">
<polygon fill="white" stroke="black" points="154.5,-112.5 154.5,-131.5 225.5,-131.5 225.5,-112.5 154.5,-112.5"/>
<text text-anchor="middle" x="190" y="-119.5" font-family="Helvetica,sans-Serif" font-size="10.00">cliente.hpp</text>
</a>
</g>
</g>
<!-- Node1&#45;&gt;Node5 -->
<g id="edge10" class="edge">
<title>Node1&#45;&gt;Node5</title>
<path fill="none" stroke="midnightblue" d="M127.11,-224.46C129.09,-211.5 134.09,-186.41 145,-168 151.64,-156.79 161.71,-146.36 170.64,-138.37"/>
<polygon fill="midnightblue" stroke="midnightblue" points="173.05,-140.92 178.39,-131.77 168.51,-135.59 173.05,-140.92"/>
</g>
<!-- Node6 -->
<g id="node6" class="node">
<title>Node6</title>
<g id="a_node6"><a xlink:href="usuario_8hpp.html" target="_top" xlink:title=" ">
<polygon fill="white" stroke="black" points="210,-56.5 210,-75.5 284,-75.5 284,-56.5 210,-56.5"/>
<text text-anchor="middle" x="247" y="-63.5" font-family="Helvetica,sans-Serif" font-size="10.00">usuario.hpp</text>
</a>
</g>
</g>
<!-- Node1&#45;&gt;Node6 -->
<g id="edge11" class="edge">
<title>Node1&#45;&gt;Node6</title>
<path fill="none" stroke="midnightblue" d="M165.76,-231.64C197.27,-228.21 239.48,-217.86 261,-188 283.17,-157.24 267.42,-110.21 255.99,-84.79"/>
<polygon fill="midnightblue" stroke="midnightblue" points="259.08,-83.14 251.62,-75.62 252.76,-86.15 259.08,-83.14"/>
</g>
<!-- Node4&#45;&gt;Node3 -->
<g id="edge4" class="edge">
<title>Node4&#45;&gt;Node3</title>
<path fill="none" stroke="midnightblue" d="M184.61,-168.47C170.9,-161 153.19,-148.71 145,-132 128.72,-98.76 137.65,-54.05 144.83,-29.34"/>
<polygon fill="midnightblue" stroke="midnightblue" points="148.18,-30.38 147.82,-19.79 141.49,-28.29 148.18,-30.38"/>
</g>
<!-- Node4&#45;&gt;Node5 -->
<g id="edge5" class="edge">
<title>Node4&#45;&gt;Node5</title>
<path fill="none" stroke="midnightblue" d="M200.85,-168.08C199.13,-160.93 196.65,-150.64 194.5,-141.69"/>
<polygon fill="midnightblue" stroke="midnightblue" points="197.85,-140.65 192.11,-131.75 191.04,-142.29 197.85,-140.65"/>
</g>
<!-- Node4&#45;&gt;Node6 -->
<g id="edge9" class="edge">
<title>Node4&#45;&gt;Node6</title>
<path fill="none" stroke="midnightblue" d="M210.88,-168.4C218.29,-159.82 229.1,-145.95 235,-132 241.23,-117.29 244.23,-99.35 245.67,-86.05"/>
<polygon fill="midnightblue" stroke="midnightblue" points="249.19,-86.02 246.58,-75.76 242.22,-85.41 249.19,-86.02"/>
</g>
<!-- Node5&#45;&gt;Node3 -->
<g id="edge8" class="edge">
<title>Node5&#45;&gt;Node3</title>
<path fill="none" stroke="midnightblue" d="M186.94,-112.37C180.62,-94.54 166,-53.3 157.48,-29.27"/>
<polygon fill="midnightblue" stroke="midnightblue" points="160.69,-27.85 154.05,-19.59 154.09,-30.19 160.69,-27.85"/>
</g>
<!-- Node5&#45;&gt;Node6 -->
<g id="edge6" class="edge">
<title>Node5&#45;&gt;Node6</title>
<path fill="none" stroke="midnightblue" d="M199.16,-112.32C207.5,-104.42 220.03,-92.55 230.18,-82.94"/>
<polygon fill="midnightblue" stroke="midnightblue" points="232.82,-85.25 237.68,-75.83 228.01,-80.17 232.82,-85.25"/>
</g>
<!-- Node6&#45;&gt;Node3 -->
<g id="edge7" class="edge">
<title>Node6&#45;&gt;Node3</title>
<path fill="none" stroke="midnightblue" d="M231.58,-56.32C216.46,-47.82 193.18,-34.73 175.53,-24.8"/>
<polygon fill="midnightblue" stroke="midnightblue" points="176.82,-21.51 166.39,-19.65 173.39,-27.61 176.82,-21.51"/>
</g>
</g>
</svg>
