<?xml version="1.0" encoding="UTF-8" standalone="no"?>
<!DOCTYPE svg PUBLIC "-//W3C//DTD SVG 1.1//EN"
 "http://www.w3.org/Graphics/SVG/1.1/DTD/svg11.dtd">
<!-- Generated by graphviz version 2.43.0 (0)
 -->
<!-- Title: include/usuario.hpp Pages: 1 -->
<svg width="487pt" height="196pt"
 viewBox="0.00 0.00 486.82 196.00" xmlns="http://www.w3.org/2000/svg" xmlns:xlink="http://www.w3.org/1999/xlink">
<g id="graph0" class="graph" transform="scale(1 1) rotate(0) translate(4 192)">
<title>include/usuario.hpp</title>
<polygon fill="white" stroke="transparent" points="-4,4 -4,-192 482.82,-192 482.82,4 -4,4"/>
<!-- Node1 -->
<g id="node1" class="node">
<title>Node1</title>
<g id="a_node1"><a xlink:title=" ">
<polygon fill="#bfbfbf" stroke="black" points="190.82,-168.5 190.82,-187.5 302.82,-187.5 302.82,-168.5 190.82,-168.5"/>
<text text-anchor="middle" x="246.82" y="-175.5" font-family="Helvetica,sans-Serif" font-size="10.00">include/usuario.hpp</text>
</a>
</g>
</g>
<!-- Node2 -->
<g id="node2" class="node">
<title>Node2</title>
<g id="a_node2"><a xlink:href="bibliotecario_8hpp.html" target="_top" xlink:title="Armazena as caracteristicas do Bibliotecário.">
<polygon fill="white" stroke="black" points="13.32,-56.5 13.32,-75.5 150.32,-75.5 150.32,-56.5 13.32,-56.5"/>
<text text-anchor="middle" x="81.82" y="-63.5" font-family="Helvetica,sans-Serif" font-size="10.00">include/bibliotecario.hpp</text>
</a>
</g>
</g>
<!-- Node1&#45;&gt;Node2 -->
<g id="edge1" class="edge">
<title>Node1&#45;&gt;Node2</title>
<path fill="none" stroke="midnightblue" d="M208.89,-165.14C187.99,-157.55 162.23,-146.42 141.82,-132 118.74,-115.69 97.84,-89.25 87.91,-75.66"/>
<polygon fill="midnightblue" stroke="midnightblue" points="207.82,-168.47 218.41,-168.47 210.13,-161.86 207.82,-168.47"/>
</g>
<!-- Node3 -->
<g id="node3" class="node">
<title>Node3</title>
<g id="a_node3"><a xlink:href="bibliotecario_8cpp.html" target="_top" xlink:title=" ">
<polygon fill="white" stroke="black" points="24.32,-0.5 24.32,-19.5 139.32,-19.5 139.32,-0.5 24.32,-0.5"/>
<text text-anchor="middle" x="81.82" y="-7.5" font-family="Helvetica,sans-Serif" font-size="10.00">src/bibliotecario.cpp</text>
</a>
</g>
</g>
<!-- Node1&#45;&gt;Node3 -->
<g id="edge9" class="edge">
<title>Node1&#45;&gt;Node3</title>
<path fill="none" stroke="midnightblue" d="M180.51,-170.36C122.22,-160.54 41.03,-136.22 3.82,-76 -11.89,-50.58 27.39,-30.33 55.74,-19.54"/>
<polygon fill="midnightblue" stroke="midnightblue" points="180.33,-173.87 190.75,-171.98 181.42,-166.96 180.33,-173.87"/>
</g>
<!-- Node4 -->
<g id="node4" class="node">
<title>Node4</title>
<g id="a_node4"><a xlink:href="main_8cpp.html" target="_top" xlink:title=" ">
<polygon fill="white" stroke="black" points="177.32,-0.5 177.32,-19.5 256.32,-19.5 256.32,-0.5 177.32,-0.5"/>
<text text-anchor="middle" x="216.82" y="-7.5" font-family="Helvetica,sans-Serif" font-size="10.00">src/main.cpp</text>
</a>
</g>
</g>
<!-- Node1&#45;&gt;Node4 -->
<g id="edge11" class="edge">
<title>Node1&#45;&gt;Node4</title>
<path fill="none" stroke="midnightblue" d="M271.61,-163.35C308.38,-141.31 370.13,-96.29 341.82,-56 322.65,-28.73 285.3,-17.91 256.39,-13.66"/>
<polygon fill="midnightblue" stroke="midnightblue" points="269.75,-160.38 262.87,-168.44 273.28,-166.43 269.75,-160.38"/>
</g>
<!-- Node5 -->
<g id="node5" class="node">
<title>Node5</title>
<g id="a_node5"><a xlink:href="cliente_8hpp.html" target="_top" xlink:title="Armazena as caracteristicas do Cliente,.">
<polygon fill="white" stroke="black" points="151.32,-112.5 151.32,-131.5 260.32,-131.5 260.32,-112.5 151.32,-112.5"/>
<text text-anchor="middle" x="205.82" y="-119.5" font-family="Helvetica,sans-Serif" font-size="10.00">include/cliente.hpp</text>
</a>
</g>
</g>
<!-- Node1&#45;&gt;Node5 -->
<g id="edge4" class="edge">
<title>Node1&#45;&gt;Node5</title>
<path fill="none" stroke="midnightblue" d="M233.8,-159.86C226.7,-150.5 218.21,-139.33 212.46,-131.75"/>
<polygon fill="midnightblue" stroke="midnightblue" points="231.21,-162.24 240.04,-168.08 236.79,-158 231.21,-162.24"/>
</g>
<!-- Node6 -->
<g id="node6" class="node">
<title>Node6</title>
<g id="a_node6"><a xlink:href="cliente_8cpp.html" target="_top" xlink:title=" ">
<polygon fill="white" stroke="black" points="245.32,-56.5 245.32,-75.5 332.32,-75.5 332.32,-56.5 245.32,-56.5"/>
<text text-anchor="middle" x="288.82" y="-63.5" font-family="Helvetica,sans-Serif" font-size="10.00">src/cliente.cpp</text>
</a>
</g>
</g>
<!-- Node1&#45;&gt;Node6 -->
<g id="edge10" class="edge">
<title>Node1&#45;&gt;Node6</title>
<path fill="none" stroke="midnightblue" d="M256.27,-159.28C260.43,-151.11 265.18,-141.2 268.82,-132 276.63,-112.24 283.34,-88.13 286.64,-75.56"/>
<polygon fill="midnightblue" stroke="midnightblue" points="253.13,-157.73 251.62,-168.22 259.34,-160.97 253.13,-157.73"/>
</g>
<!-- Node7 -->
<g id="node7" class="node">
<title>Node7</title>
<g id="a_node7"><a xlink:href="usuario_8cpp.html" target="_top" xlink:title=" ">
<polygon fill="white" stroke="black" points="388.82,-112.5 388.82,-131.5 478.82,-131.5 478.82,-112.5 388.82,-112.5"/>
<text text-anchor="middle" x="433.82" y="-119.5" font-family="Helvetica,sans-Serif" font-size="10.00">src/usuario.cpp</text>
</a>
</g>
</g>
<!-- Node1&#45;&gt;Node7 -->
<g id="edge12" class="edge">
<title>Node1&#45;&gt;Node7</title>
<path fill="none" stroke="midnightblue" d="M286.4,-165.57C321.68,-155.38 372.51,-140.7 404.32,-131.52"/>
<polygon fill="midnightblue" stroke="midnightblue" points="285.08,-162.31 276.45,-168.44 287.02,-169.03 285.08,-162.31"/>
</g>
<!-- Node2&#45;&gt;Node3 -->
<g id="edge2" class="edge">
<title>Node2&#45;&gt;Node3</title>
<path fill="none" stroke="midnightblue" d="M81.82,-45.8C81.82,-36.91 81.82,-26.78 81.82,-19.75"/>
<polygon fill="midnightblue" stroke="midnightblue" points="78.32,-46.08 81.82,-56.08 85.32,-46.08 78.32,-46.08"/>
</g>
<!-- Node2&#45;&gt;Node4 -->
<g id="edge3" class="edge">
<title>Node2&#45;&gt;Node4</title>
<path fill="none" stroke="midnightblue" d="M112.72,-52.64C138.06,-42.5 173.25,-28.43 195.52,-19.52"/>
<polygon fill="midnightblue" stroke="midnightblue" points="111.19,-49.48 103.21,-56.44 113.79,-55.98 111.19,-49.48"/>
</g>
<!-- Node5&#45;&gt;Node2 -->
<g id="edge5" class="edge">
<title>Node5&#45;&gt;Node2</title>
<path fill="none" stroke="midnightblue" d="M176.81,-108.37C153.59,-98.26 121.65,-84.35 101.37,-75.52"/>
<polygon fill="midnightblue" stroke="midnightblue" points="175.6,-111.66 186.17,-112.44 178.4,-105.24 175.6,-111.66"/>
</g>
<!-- Node5&#45;&gt;Node3 -->
<g id="edge6" class="edge">
<title>Node5&#45;&gt;Node3</title>
<path fill="none" stroke="midnightblue" d="M195.91,-103.41C187.38,-89.38 174.07,-69.84 158.82,-56 141.5,-40.29 117.82,-27.46 101.31,-19.57"/>
<polygon fill="midnightblue" stroke="midnightblue" points="192.93,-105.26 201.01,-112.12 198.97,-101.72 192.93,-105.26"/>
</g>
<!-- Node5&#45;&gt;Node4 -->
<g id="edge8" class="edge">
<title>Node5&#45;&gt;Node4</title>
<path fill="none" stroke="midnightblue" d="M207.68,-102.35C210.09,-78.25 214.18,-37.31 215.96,-19.59"/>
<polygon fill="midnightblue" stroke="midnightblue" points="204.19,-102.07 206.68,-112.37 211.16,-102.77 204.19,-102.07"/>
</g>
<!-- Node5&#45;&gt;Node6 -->
<g id="edge7" class="edge">
<title>Node5&#45;&gt;Node6</title>
<path fill="none" stroke="midnightblue" d="M227.91,-106.62C243.08,-96.76 262.7,-83.99 275.51,-75.65"/>
<polygon fill="midnightblue" stroke="midnightblue" points="225.62,-103.94 219.15,-112.32 229.44,-109.8 225.62,-103.94"/>
</g>
</g>
</svg>
